<svg width="451" height="489" version="1.1" viewBox="0 0 451 489" xmlns="http://www.w3.org/2000/svg" xmlns:xlink="http://www.w3.org/1999/xlink"><defs><linearGradient id="b" x1="294" x2="155" y1="309" y2="68.7" gradientUnits="userSpaceOnUse"><stop stop-color="#0080ff" offset="0"/><stop stop-color="#0ff" offset="1"/></linearGradient><linearGradient id="a" x1="314" x2="194" y1="442" y2="235" gradientUnits="userSpaceOnUse"><stop stop-color="#00f" offset="0"/><stop stop-color="#7072ff" offset="1"/></linearGradient></defs><path d="m195 485c-47-3.57-97-7.07-138-33.4-17.4-19.3 14.5-43.2 31.9-39.9-22.1 1.48-37.4 32.6-10.4 41 66.6 23 139 24.6 208 19.9 35.5-3.35 72.5-8.46 104-26.7 17.8-15.7-19.2-34.7-19.8-35.1 23.9-0.962 54 31.1 22.4 45.3-34.4 20-75.3 23.4-114 27.9-28.1 2.31-56.3 2.52-84.4 1.07zm94.5-3.73c38.5-5.29 81.3-7.94 113-33.7 15.4-17-27.1-38.4-26.4-34.3 26.3 3.83 29.6 35.9 2.45 41.9-62 22-129 23.7-194 19.6-37.7-3.78-77.5-5.89-111-24.6-28.2-6.27 1.66-35.7 2.36-33.3-31.8 4.42-20.3 46.6 7.57 46.3 66.3 23.1 138 22.1 207 18.2zm-204-68.6c3.19-3.68-8.8 4.75 0 0zm3.67-1.67c-3.18-1.42-0.104 2.31 0 0zm11.1 73c6.07-1.45-1.43 2.14 0 0zm257 0c6.07-1.45-1.43 2.14 0 0zm-275-3.8c-23-7.58-63.5-15.1-61.1-46 3.16-15.3 35.1-28.9 38.3-25.4-20.2 7.6-44.4 32.1-17.4 49.1 11.9 13.6 54.4 17.8 54.2 25.6-4.75-0.676-9.29-2.27-14-3.26zm12.4 0.875c-4.27-2.6-1.4 2.38 0 0zm-4-1c-4.27-2.6-1.4 2.38 0 0zm-4-1c-4.27-2.6-1.4 2.38 0 0zm-4.06-1.06c-3.18-1.42-0.104 2.31 0 0zm-4-1c-3.18-1.42-0.104 2.31 0 0zm-3-1c-3.18-1.42-0.104 2.31 0 0zm-3-1c-3.18-1.42-0.104 2.31 0 0zm-4.67-1.56c-21.7-5.65-56.8-33.5-29-53.9 6.94-4.66 25.1-14.4 6.76-7.14-27 4.38-29.2 43.6-2.62 51 7.86 4.04 16 8.96 24.9 9.99zm297 8.65c2.78-1.45-9.98-0.267 3.28-3.1 22.3-9.4 58.1-14.9 62.4-43-1.44-14.5-29.4-24.3-30.4-28.7 18.5 6.67 43.7 28.6 23 47.6-6.29 8.35-30 17.4-32 19.2 20.4-3.96 60.5-22.4 40.4-47.5-5.37-6.6-36.9-23.2-14.1-12.9 26.4 8.36 28.5 43.2 0.518 51.5-14.9 9.64-47.4 17.1-53.1 16.9zm6.67-2.09c-3.18-1.42-0.104 2.31 0 0zm4.06-0.938c-4.27-2.6-1.4 2.38 0 0zm2.94-1.06c-3.18-1.42-0.104 2.31 0 0zm4.06-0.938c-4.27-2.6-1.4 2.38 0 0zm2.94-1.06c-3.18-1.42-0.104 2.31 0 0zm-184-14c-28-3.1-58.6-3.7-82.2-21.1-9.72-9.89 17.4-25.9 7.5-7.25 20.7 16.3 49.1 14.8 74 17.9 41.9 2.53 84.8 0.72 125-11.7 8.2-6.32 6.33-23.5 14-6.21-7.28 22.4-38.7 21.1-58.4 25.8-26.4 3.76-53.3 4.3-79.9 2.55zm77.7-3.8c18.4-4.82 61.5-3.6 57.2-29.2-7.98-8.75 2.36 12.2-10.6 11.6-27.9 12.5-59.7 11.9-89.7 13.6-36.3 0.571-73.6-2.16-108-14.9-5.99-8.51-2.73-19.1-6.84-2.98 13 20.4 43.6 17 65.1 22 30.8 3.41 61.9 3.48 92.6-0.115zm-66-24.7c-36.8-4.12-73.9-19.6-97.7-48.9 26.1 10.4 58.7 7.92 78.4-14 22.8-22.9 14.9-57.2 17.1-86.2-3.29-16.3 2.35-43.4 21.1-42.8 18.8 15.5 33.2 35.9 53.6 49.5 17.7-17-20.8-32.7-29.6-46.9-11.4-21.5-40.4-25.6-53.5-3.58-10.2 15.1-41.2 32.9-32.6 50.5 10.1-1.3 28.8-25.6 24.4-0.632-2.45 22.4 6.4 48.7-9.69 67.4-22.1 27.5-66.2 19.3-85.2-7.48-28.3-35.6-20.8-84.9-7.8-125 21.9-54.9 54.5-105 84.3-155 14.7-22.4 33.7-47.9 53.3-66.5 4-0.503-21.2 20.3-25.4 28.8-41.3 61.9-81.2 125-109 194-13.2 37.3-14 81.3 4.52 117 15.8 31.3 66.1 40.8 86.8 9.47 11.4-22.6 5.72-49.3 6.41-73.3-6.02 14.1-39.6 18.1-24.1-3.33 14.8-18.8 30.9-37.3 49.9-52.1 21.2-13.8 37.3 17.1 52 28.9 15.1 13.3 27.7 36 50.3 35.5 28.4-0.0982 49.8-29.5 43.4-56.6-6.55-39.7-33.6-71.4-51.6-106-24.3-40.3-46.6-82.4-77.2-118-11.8-11.7 13.5 8.75 16.4 16.3 36.3 50.8 66.2 106 97.1 160 24.1 48.9 42.5 108 20 161-21.3 53.3-76.3 90-134 89.7-7.15 0.182-14.3-0.0856-21.4-0.774zm48.2-4.82c27.8-4.24 56.1-14.4 73.8-37.4 37.4-42.5 50.9-106 30.6-159 2.08 26.6-14.7 57.1-43.3 59.5-13-4.3-28.1-8.49-35.8 1.01-22.8-8.91-35.5-32-53.6-47.3-17.7-2.84-22.8 23.8-19.7 38.8-0.501 29.6 4.83 64.6-17.8 87.9-17 18-44.6 26.8-68.4 18.3 13.1 19.6 38.2 28.6 59.9 35.6 24.3 6.9 49.6 6.52 74.4 2.77zm-171-19.7c3.18-1.42 0.104 2.31 0 0zm304-2c3.18-1.42 0.104 2.31 0 0zm-332-2c3.18-1.42 0.104 2.31 0 0zm332 0c3.18-1.42 0.104 2.31 0 0zm-285-80.9c-14.1-20.1-7.58-46.4-4.52-68.9 5.17-24.4 15-47.7 28.9-68.4 27.2-12.1 9.03 28.9 0.722 38.9-12.1 28.3-16.2 59.8-11.3 90.2 0.0968 6.88-7.58 13.5-13.8 8.21zm8.27-1.95c7.43-23.9-3.77-49.8 6.76-73.5 0.699-22.2 29-43.7 19.6-63.3-20 5.02-22.7 30.6-30.6 46.6-9.61 28.1-15.6 60.3-4.71 88.7 1.99 2.57 6.26 3.97 8.92 1.39z" stroke="#000" stroke-width="5"/><path d="m215 428c-12.6-1.04-25.4-3.88-38.1-8.45-17.7-6.41-32.7-14.5-38.9-21.1l-2.37-2.51 8.99 0.294c28.6 0.937 56.1-17 65.5-42.8 5.16-14.1 5.59-18.4 5.65-54.9 0.0495-30 0.216-33.8 1.67-38.1 2.09-6.09 6.72-11.3 10.8-12 3.68-0.691 3.54-0.818 20.5 17.7 14 15.3 21.7 21.9 31.1 26.8l6.73 3.48 2.97-2.61c1.63-1.43 4.41-2.88 6.16-3.21 4.57-0.858 13 0.116 20.1 2.33 5.42 1.68 6.76 1.8 11.4 0.942 7.96-1.46 17.1-6.36 23.2-12.5 6.78-6.78 11.2-14.2 14.6-24.3l2.73-8.15 1.68 9.03c2.57 13.8 2.39 42.3-0.358 55.9-5.67 28.1-17.4 52.4-36 74.9-14.5 17.5-31.6 27.6-57.3 34-18.1 4.48-43.7 6.72-60.8 5.31z" fill="url(#a)" stroke="#000" stroke-dashoffset="51.7" stroke-linejoin="bevel" stroke-width="4.39"/><path d="m135 368c-2.57-0.622-7.99-2.78-12.1-4.79-13.7-6.81-22.2-17.9-28.8-37.8-10.1-30.5-8.34-69.6 4.54-101 18.8-46.5 51.8-106 97.2-174 13-19.6 15.2-22.4 24.7-31.8l10.4-10.3 5.5 6.75c16.3 20 31.3 42.9 57.5 87.5 9.91 16.9 24.6 41.9 32.7 55.6 16.8 28.5 23.5 41.3 28 54 10.4 29.3 8.47 46.3-6.89 61.6-8.61 8.62-17.5 12.6-28.2 12.6-12.1 0.0579-18.9-4.68-43.8-30.5-27.8-28.8-30.6-31.4-37-34.6-5.09-2.51-6.15-2.72-11.8-2.32-5.16 0.369-6.91 0.938-10.8 3.5-12.7 8.45-47.6 45.8-53.4 57-2.59 5.08-2.05 10.9 1.24 13.4 3.96 2.94 12.7 2.5 19.7-0.99l5.42-2.71 0.241 14.2c0.562 33.1-2.34 45.9-12.6 55.5-8.35 7.83-16.6 10.9-29.2 10.8-4.38-0.041-10.1-0.583-12.6-1.21zm-14.1-41.1c1.64-1.09 3.7-3.45 4.58-5.25 1.46-2.97 1.51-4.02 0.551-11.6-1.56-12.4-0.669-38 1.75-50 2.85-14.2 8.12-29.4 12.8-36.8 9.14-14.7 13.2-30.5 9.66-37.4-1.97-3.8-6.69-4.98-12.8-3.2-4.55 1.33-4.91 1.66-9.26 8.66-13.4 21.6-22.6 46.1-26.7 71.2-2.51 15.3-3.16 38.8-1.28 46.2 1.87 7.41 6.15 16.1 9.03 18.4 3.05 2.4 8 2.32 11.8-0.198z" fill="url(#b)" stroke="#000" stroke-dashoffset="51.7" stroke-linejoin="bevel" stroke-width="4.39"/></svg>
