<svg width="451" height="489" version="1.1" viewBox="0 0 451 489" xmlns="http://www.w3.org/2000/svg" xmlns:xlink="http://www.w3.org/1999/xlink"><defs><linearGradient id="b" x1="229" x2="226" y1="392" y2="-17.7" gradientUnits="userSpaceOnUse"><stop stop-color="#0075ff" offset="0"/><stop stop-color="#0ff" offset=".602"/></linearGradient><linearGradient id="a" x1="245" x2="245" y1="461" y2="210" gradientUnits="userSpaceOnUse"><stop stop-color="#0000b4" offset="0"/><stop stop-color="#008aff" offset="1"/></linearGradient></defs><path d="m230-0.0195c-0.177 0.00225-0.256 0.0352-0.256 0.0352-51.5 60.5-79.9 109-103 147-58 98.1-54 148-44.7 177 11 29.5 29.1 38.7 61.1 45.1 24.4 4.89 29.7-2.13 37.6-18.9 10.7-22.6 10.8-42.5 10.2-58.8-0.748-20.3-21.4 46.2-31.5-5.02-1.73-8.79 27.3-39.6 42.3-52.3 44-37.5 59.6 30.2 108 56.6 32.5 17.8 73.2-31.9 51.3-87.1-17.3-43.5-114-204-131-204zm-121 237c6.2-17.6 25.7-61.5 37.5-51.3 11.9 10.3-11.8 33.4-20.2 69.9-8.88 38.4 8.48 84.8-16.5 69.7-16.6-10-6.64-71.7-0.799-88.3z" fill="url(#b)" stroke-width="0"/><path d="m122 388c17.5 9.72 58.9 9.62 72-6.52 19.3-23.8 23-42.8 23.3-71.9 0.258-27.8-6.69-48.7 13.7-52.7 13.5-2.61 28.2 33 43.7 45 32.1 24.8 11.2-27.8 19.9-23.7 15.1 7.15 23 19.3 45.5 7.79 15.7-8.03 31-44.6 23.6-73.6-3.68-14.3 23.5 55.7 16.1 97-16.8 94.6-83.3 117-110 124-42.6 10.4-72.3 0.93-102-8.8-32.9-10.7-77.8-53.8-45.9-36.2z" fill="url(#a)"/><path d="m131 427c7.67-11.7 2.9-15.7-16 0.381-18 15.3 46.5 40.4 123 41.1 62.6 0.61 127-29.2 109-40.2-21.8-13.5-30.8-12.7-15.4 2.4 12.1 11.9-68.6 22.6-101 22.2-66.4-0.828-108-13.9-99.7-26z" fill="#0000b4"/><path d="m87 411c20.5-10.9-23.2 1.32-34.9 17.3-15.2 20.8 25.5 66.8 204 60.5 169-5.93 165-56.2 145-70.1-25.2-17.7-46.3-22.3-19-0.389 13.1 10.5 11.9 27.9-29.8 44.3-24.6 9.69-90.8 13.1-125 13.2-35.2 0.0709-86.2-7.32-129-16.2-51.6-10.8-23.6-42.4-11.7-48.7z" fill="#0000b4"/><path d="m57.3 408c-16.1 4.83-32.3 10.4-38.1 22.4-3.24 6.76-11.3 37.6 72.1 52.4 30.6 5.43-14.9-6.7-34.3-17.9-13.8-7.91-25.5-12.9-21.7-30.9 4.51-21.2 43.5-32.5 22-26.1z" fill="#0000b4"/><path d="m407 412c-21.2-17.6 26.3 3.15 35.3 18.8 9.99 17.4-15 35.3-33.4 43.4-18.5 8.21-70.8 13.4-61.5 10.6 27-8.04 70.5-19 78.8-45 4.38-13.6-8.48-18.8-19.3-27.8z" fill="#0000b4"/></svg>
